<svg xmlns="http://www.w3.org/2000/svg" version="1.1" xmlns:xlink="http://www.w3.org/1999/xlink" xmlns:svgjs="http://svgjs.dev/svgjs" width="1500" height="1500" viewBox="0 0 1500 1500"><rect width="1500" height="1500" fill="#ffffff"></rect><g transform="matrix(0.6666666666666666,0,0,0.6666666666666666,249.39393939393938,438.5856950067477)"><svg viewBox="0 0 396 247" data-background-color="#dedede" preserveAspectRatio="xMidYMid meet" height="935" width="1500" xmlns="http://www.w3.org/2000/svg" xmlns:xlink="http://www.w3.org/1999/xlink"><g id="tight-bounds" transform="matrix(1,0,0,1,0.2400000000000091,-0.09999999999999432)"><svg viewBox="0 0 395.52 247.2" height="247.2" width="395.52"><g><svg></svg></g><g><svg viewBox="0 0 395.52 247.2" height="247.2" width="395.52"><mask id="080e837c-cce2-4fc1-85d2-eefa4acf1b3c"><rect width="395.52" height="247.2" fill="white"></rect><g transform="matrix(1,0,0,1,105.20116751269035,37.08)" id="clone"><svg viewBox="0 0 185.1176649746193 173.04" height="173.04" width="185.1176649746193"><g><svg viewBox="0 0 185.1176649746193 173.04" height="173.04" width="185.1176649746193"><g><svg viewBox="0 0 185.1176649746193 173.04" height="173.04" width="185.1176649746193"><g><svg viewBox="0 0 185.1176649746193 173.04" height="173.04" width="185.1176649746193"><g id="SvgjsG1117"><svg viewBox="0 0 185.1176649746193 173.04" height="173.04" width="185.1176649746193" id="SvgjsSvg1116"><g><svg viewBox="0 0 185.1176649746193 173.04" height="173.04" width="185.1176649746193"><g transform="matrix(1,0,0,1,0,0)"><svg width="185.1176649746193" viewBox="-2.15 -37.4 43.15 40.4" height="173.04" data-palette-color="#000000"><path d="M25.85 0L13.05 0 0.85-34.4 12.65-34.4 19.55-11.4 19.75-11.4 26.7-34.4 38-34.4 25.85 0Z" opacity="1" transform="matrix(1,0,0,1,0,0)" fill="black" class="wordmark-text-0" id="SvgjsPath1115" stroke-width="5" stroke="black" stroke-linejoin="round"></path></svg></g></svg></g></svg></g></svg></g></svg></g></svg></g></svg></g></mask><g mask="url(#080e837c-cce2-4fc1-85d2-eefa4acf1b3c)"><g><path d="M229.647 208.963h-63.526l-60.548-170.726h58.563l34.244 114.148h0.993l34.493-114.148h56.081z" fill="#000000" fill-rule="nonzero" stroke="none" stroke-width="1" stroke-linecap="butt" stroke-linejoin="miter" stroke-miterlimit="10" stroke-dasharray="" stroke-dashoffset="0" font-family="none" font-weight="none" font-size="none" text-anchor="none" style="mix-blend-mode: normal" data-fill-palette-color="tertiary"></path></g></g><g transform="matrix(1,0,0,1,105.20116751269035,37.08)"><svg viewBox="0 0 185.1176649746193 173.04" height="173.04" width="185.1176649746193"><g><svg viewBox="0 0 185.1176649746193 173.04" height="173.04" width="185.1176649746193"><g><svg viewBox="0 0 185.1176649746193 173.04" height="173.04" width="185.1176649746193"><g><svg viewBox="0 0 185.1176649746193 173.04" height="173.04" width="185.1176649746193"><g id="textblocktransform"><svg viewBox="0 0 185.1176649746193 173.04" height="173.04" width="185.1176649746193" id="textblock"><g><svg viewBox="0 0 185.1176649746193 173.04" height="173.04" width="185.1176649746193"><g transform="matrix(1,0,0,1,0,0)"><svg width="185.1176649746193" viewBox="-2.15 -37.4 43.15 40.4" height="173.04" data-palette-color="#000000"><path d="M25.85 0L13.05 0 0.85-34.4 12.65-34.4 19.55-11.4 19.75-11.4 26.7-34.4 38-34.4 25.85 0Z" opacity="1" transform="matrix(1,0,0,1,0,0)" fill="#000000" class="wordmark-text-0" data-fill-palette-color="primary" id="text-0"></path></svg></g></svg></g></svg></g></svg></g></svg></g></svg></g></svg></g></svg></g><defs></defs></svg><rect width="395.52" height="247.2" fill="none" stroke="none" visibility="hidden"></rect></g></svg></g></svg>